<svg xmlns="http://www.w3.org/2000/svg" viewBox="0 0 32 32" role="img" aria-hidden="true">
  <circle cx="16" cy="16" r="15" fill="#25D366"/>
  <path
    fill="none"
    stroke="#fff"
    stroke-linecap="round"
    stroke-linejoin="round"
    stroke-width="2.2"
    d="M16 7.2a8.8 8.8 0 0 0-7.63 13.18L7.2 24.8l4.52-1.18A8.8 8.8 0 1 0 16 7.2Z"
  />
  <path
    fill="#fff"
    d="M12.1 10.85c.22-.08.45-.1.67-.06.18.04.4.13.52.4l1.1 2.38c.11.25.06.54-.13.74l-.86.9c-.17.18-.2.45-.07.66.53.86 1.25 1.61 2.09 2.18.2.14.47.12.66-.04l1.04-.9c.2-.17.48-.2.71-.08l2.25 1.13c.25.13.4.39.37.67-.08.75-.46 1.7-1.17 2.06-.66.34-1.48.53-2.51.22-1.14-.34-2.55-.98-4.08-2.44-1.29-1.23-2.13-2.49-2.55-3.54-.44-1.1-.28-2.02.03-2.69.36-.77 1.17-1.35 1.93-1.59Z"
  />
</svg>
